<?xml version="1.0" encoding="UTF-8" standalone="no"?>
<!DOCTYPE svg PUBLIC "-//W3C//DTD SVG 1.1//EN" "http://www.w3.org/Graphics/SVG/1.1/DTD/svg11.dtd">
<svg width="100%" height="100%" viewBox="0 0 160 160" version="1.1" xmlns="http://www.w3.org/2000/svg" xmlns:xlink="http://www.w3.org/1999/xlink" xml:space="preserve" xmlns:serif="http://www.serif.com/" style="fill-rule:evenodd;clip-rule:evenodd;stroke-linejoin:round;stroke-miterlimit:2;">
    <g transform="matrix(1,0,0,1,1,6)">
        <path d="M31.437,14.022C31.437,13.216 30.783,12.563 29.978,12.563L19.022,12.563C18.216,12.563 17.563,13.216 17.563,14.022L17.563,135.974C17.563,136.78 18.216,137.433 19.022,137.433L29.978,137.433C30.783,137.433 31.437,136.78 31.437,135.974L31.437,14.022Z" style="fill:rgb(255,178,0);"/>
    </g>
    <g transform="matrix(1,0,0,1,1,6)">
        <path d="M17.563,123.562L31.438,123.562L31.438,135.978C31.438,136.784 30.784,137.438 29.978,137.438L19.022,137.438C18.216,137.438 17.563,136.784 17.563,135.978L17.563,123.562Z" style="fill:rgb(255,0,0);fill-rule:nonzero;"/>
    </g>
    <g transform="matrix(1,0,0,1,1,6)">
        <path d="M59.188,14.022C59.188,13.216 58.534,12.563 57.728,12.563L46.773,12.563C45.967,12.563 45.313,13.216 45.313,14.022L45.313,135.974C45.313,136.78 45.967,137.433 46.773,137.433L57.728,137.433C58.534,137.433 59.188,136.78 59.188,135.974L59.188,14.022Z" style="fill:rgb(255,178,0);"/>
    </g>
    <g transform="matrix(1,0,0,1,1,6)">
        <path d="M86.938,14.022C86.938,13.216 86.284,12.563 85.479,12.563L74.523,12.563C73.718,12.563 73.064,13.216 73.064,14.022L73.064,135.974C73.064,136.78 73.718,137.433 74.523,137.433L85.479,137.433C86.284,137.433 86.938,136.78 86.938,135.974L86.938,14.022Z" style="fill:rgb(255,178,0);"/>
    </g>
    <g transform="matrix(1,0,0,1,1,6)">
        <path d="M114.683,14.022C114.683,13.216 114.029,12.563 113.223,12.563L102.267,12.563C101.462,12.563 100.808,13.216 100.808,14.022L100.808,135.974C100.808,136.78 101.462,137.433 102.267,137.433L113.223,137.433C114.029,137.433 114.683,136.78 114.683,135.974L114.683,14.022Z" style="fill:rgb(255,178,0);"/>
    </g>
    <g transform="matrix(1,0,0,1,1,6)">
        <path d="M142.44,62.585C142.44,61.78 141.786,61.126 140.98,61.126L130.024,61.126C129.219,61.126 128.565,61.78 128.565,62.585L128.565,87.416C128.565,88.221 129.219,88.875 130.024,88.875L140.98,88.875C141.786,88.875 142.44,88.221 142.44,87.416L142.44,62.585Z" style="fill:rgb(255,178,0);"/>
    </g>
</svg>
